<?xml version="1.0" encoding="UTF-8"?>
<svg id="Calque_1" xmlns="http://www.w3.org/2000/svg" version="1.1" viewBox="0 0 595.28 841.89">
  <!-- Generator: Adobe Illustrator 30.0.0, SVG Export Plug-In . SVG Version: 2.1.1 Build 123)  -->
  <defs>
    <style>
      .st0 {
        fill: #1d1d1b;
      }

      .st1 {
        display: none;
        fill: none;
        stroke-width: .25px;
      }

      .st1, .st2 {
        stroke: #1d1d1b;
        stroke-miterlimit: 10;
      }

      .st2 {
        fill: #fff;
      }
    </style>
  </defs>
  <circle class="st2" cx="298.43" cy="412.5" r="261.51"/>
  <path class="st0" d="M241.13,362.43l-47.79-.07c.02-4.02-.02-8.17-.02-12.59l47.8.09v12.57ZM193.24,368.61h47.87c.06,4.68.03,7.97-.02,10.49l-21.12-.04-.02,12.4h17.94v9.96h-17.62v17.12s-27.03-.03-27.03-.03v-49.91Z"/>
  <path class="st0" d="M202.87,454.68c-6.64-4.94-8.26-10.3-9.69-18.53v-16.5h27.27v14.48c0,3.01.93,5.11,2.8,6.3,1.87,1.19,4.75,1.79,8.67,1.79s6.58-.6,8.54-1.79c1.95-1.19,2.93-3.29,2.93-6.3v-84.22h27.02v86.24c0,8.2-3.23,14.38-9.68,18.53-6.46,4.15-16.06,6.23-28.8,6.23s-22.9-1.64-29.06-6.23Z"/>
  <path class="st0" d="M309.25,371.68c-1.76-1.53-4.79-2.3-9.08-2.3h-7.81v36.98h-20.71v-56.62h27.93c11.59,0,19.99,2.17,25.2,6.52,5.21,4.35,7.81,10.82,7.81,19.41v30.69h-20.71v-27.31c0-3.38-.88-5.83-2.64-7.36ZM332.59,400.99v30.69c0,8.59-2.61,15.06-7.81,19.41-5.21,4.35-13.61,6.52-25.2,6.52h-27.93v-56.62h20.71v36.98h7.81c4.3,0,7.32-.77,9.08-2.3,1.76-1.54,2.64-3.99,2.64-7.37v-27.31h20.71Z"/>
  <path class="st0" d="M341.3,451.18c-5.28-4-7.92-9.95-7.92-17.86v-60.02c0-5.6.98-10.2,2.94-13.81,1.96-3.6,5.22-6.3,9.78-8.1,4.56-1.8,10.63-2.7,18.2-2.7,8.09,0,14.24,1.41,18.98,2.7s10.73,3.65,10.73,7.54.08,8.39.08,14.19c0,3.5.06,6.84,0,10.02s-.06,5.89-.06,7.65l-21.7-.53c.65-1.8,1.14-3.85,1.47-6.15.32-2.3.49-4.7.49-7.2,0-3.4-.72-5.75-2.15-7.05-1.44-1.3-4.05-1.95-7.83-1.95-3.39,0-5.94.65-7.63,1.95-1.7,1.3-2.54,3.65-2.54,7.05v52.07c0,3.4.78,5.75,2.35,7.05,1.57,1.3,4.04,1.95,7.43,1.95s5.84-.65,7.34-1.95c1.5-1.3,2.25-3.65,2.25-7.05v-27.76h20.74v32.11c0,7.9-2.64,13.86-7.92,17.86-5.28,4-12.82,6-22.6,6s-17.12-2-22.41-6ZM364.29,401.21h29.55l-14.28,16.96h-15.26v-16.96Z"/>
  <circle class="st1" cx="298.81" cy="413.89" r="277.28"/>
</svg>